<svg xmlns="http://www.w3.org/2000/svg" xmlns:xlink="http://www.w3.org/1999/xlink" id="Layer_1" x="0" y="0" version="1.1" viewBox="0 0 256 352" xml:space="preserve" style="enable-background:new 0 0 256 352"><style type="text/css">.st0{fill:#34991f}.st1{fill:#2948cc}.st2{fill:#41a824}.st2,.st3{display:none}.st4{display:inline}.st5{fill:none;stroke:#231f20;stroke-miterlimit:10}</style><rect width="256" height="352" class="st0"/><g><circle cx="16" cy="16" r="16" class="st1"/><path d="M236,56h-24c-6.6,0-12-5.4-12-12V20c0-6.6,5.4-12,12-12h24c6.6,0,12,5.4,12,12v24C248,50.6,242.6,56,236,56z" class="st1"/><path d="M200,64c0-4.4-3.6-8-8-8v8H200z" class="st1"/><path d="M256,56c-4.4,0-8,3.6-8,8h8V56z" class="st1"/><path d="M200,0c0,4.4-3.6,8-8,8V0H200z" class="st1"/><path d="M256,8c-4.4,0-8-3.6-8-8l8,0V8z" class="st1"/><path d="M108,120H52c-6.6,0-12-5.4-12-12V52c0-6.6,5.4-12,12-12h56c6.6,0,12,5.4,12,12v56C120,114.6,114.6,120,108,120 z" class="st1"/><rect width="16" height="64" x="152" y="64" class="st1"/><path d="M224,72c4.4,0,8-3.6,8-8h-16C216,68.4,219.6,72,224,72z" class="st1"/><path d="M224,120c-4.4,0-8,3.6-8,8h16C232,123.6,228.4,120,224,120z" class="st1"/><path d="M136,96c0-4.4-3.6-8-8-8v16C132.4,104,136,100.4,136,96z" class="st1"/><path d="M104,128c0,4.4-3.6,8-8,8v-8H104z" class="st1"/><path d="M160,136c-4.4,0-8-3.6-8-8h8V136z" class="st1"/><path d="M104,160c0,4.4-3.6,8-8,8v-8H104z" class="st1"/><path d="M160,168c-4.4,0-8-3.6-8-8h8V168z" class="st1"/><path d="M104,192c0-4.4-3.6-8-8-8v16C100.4,200,104,196.4,104,192z" class="st1"/><path d="M152,192c0-4.4,3.6-8,8-8v16C155.6,200,152,196.4,152,192z" class="st1"/><circle cx="128" cy="160" r="8" class="st1"/><circle cx="192" cy="160" r="8" class="st1"/><circle cx="224" cy="160" r="8" class="st1"/><circle cx="192" cy="192" r="8" class="st1"/><circle cx="224" cy="192" r="8" class="st1"/><path d="M192,88c-4.4,0-8,3.6-8,8s3.6,8,8,8h64V88H192z" class="st1"/><path d="M104,224c0-4.4-3.6-8-8-8v8H104z" class="st1"/><path d="M160,216c-4.4,0-8,3.6-8,8h8V216z" class="st1"/><path d="M128,216c-4.4,0-8,3.6-8,8h16C136,219.6,132.4,216,128,216z" class="st1"/><path d="M0,232v16c4.4,0,8,3.6,8,8h24v-24H0z" class="st1"/><path d="M64,232v16c-4.4,0-8,3.6-8,8H32v-24H64z" class="st1"/><path d="M120,256h-16c0-4.4-3.6-8-8-8v-24h24V256z" class="st1"/><path d="M88,224H72c0,4.4-3.6,8-8,8v24h24V224z" class="st1"/><path d="M160,248v-16c4.4,0,8-3.6,8-8h24v24H160z" class="st1"/><path d="M160,248v-16c-4.4,0-8-3.6-8-8h-24v24H160z" class="st1"/><path d="M232,224h16c0,4.4,3.6,8,8,8v24h-24V224z" class="st1"/><path d="M200,256h16c0-4.4,3.6-8,8-8v-24h-24V256z" class="st1"/><path d="M72,288h16c0-4.4,3.6-8,8-8v-24H72V288z" class="st1"/><path d="M56,288H40c0-4.4-3.6-8-8-8v-24h24V288z" class="st1"/><path d="M128,280v-16c4.4,0,8-3.6,8-8h24v24H128z" class="st1"/><path d="M128,280v-16c-4.4,0-8-3.6-8-8H96v24H128z" class="st1"/><path d="M56,288H40c0,4.4-3.6,8-8,8v24h24V288z" class="st1"/><path d="M72,288h16c0,4.4,3.6,8,8,8v24H72V288z" class="st1"/><path d="M128,296v16c-4.4,0-8,3.6-8,8H96v-24H128z" class="st1"/><path d="M128,296v16c4.4,0,8,3.6,8,8h24v-24H128z" class="st1"/><path d="M152,320h-16c0,4.4-3.6,8-8,8v24h24c0-4.4,3.6-8,8-8v-16C155.6,328,152,324.4,152,320z" class="st1"/><path d="M104,320h16c0,4.4,3.6,8,8,8v24h-24c0-4.4-3.6-8-8-8v-16C100.4,328,104,324.4,104,320z" class="st1"/><path d="M8,320h16c0-4.4,3.6-8,8-8v-24H8c0,4.4-3.6,8-8,8l0,16C4.4,312,8,315.6,8,320z" class="st1"/><path d="M32,344v-16c-4.4,0-8-3.6-8-8H0l0,24c4.4,0,8,3.6,8,8h16C24,347.6,27.6,344,32,344z" class="st1"/><path d="M88,320H64v24c4.4,0,8,3.6,8,8h24v-24C91.6,328,88,324.4,88,320z" class="st1"/><path d="M32,328v24h24c0-4.4,3.6-8,8-8v-24H40C40,324.4,36.4,328,32,328z" class="st1"/><path d="M160,256v96h96v-96H160z M192,328c-4.4,0-8-3.6-8-8s3.6-8,8-8s8,3.6,8,8S196.4,328,192,328z M192,296 c-4.4,0-8-3.6-8-8s3.6-8,8-8s8,3.6,8,8S196.4,296,192,296z M224,328c-4.4,0-8-3.6-8-8s3.6-8,8-8s8,3.6,8,8S228.4,328,224,328z M224,296c-4.4,0-8-3.6-8-8s3.6-8,8-8s8,3.6,8,8S228.4,296,224,296z" class="st1"/><path d="M8,112.2v-64V48c0-4.4,3.6-8,8-8s8,3.6,8,8v64c0,4.4-3.6,8-8,8s-8-3.6-8-8" class="st1"/><path d="M112.2,24h-64H48c-4.4,0-8-3.6-8-8s3.6-8,8-8h64c4.4,0,8,3.6,8,8s-3.6,8-8,8" class="st1"/><path d="M172,8h-24c-6.6,0-12,5.4-12,12v24c0,6.6,5.4,12,12,12h24c6.6,0,12-5.4,12-12V20C184,13.4,178.6,8,172,8z M160,40c-4.4,0-8-3.6-8-8s3.6-8,8-8s8,3.6,8,8S164.4,40,160,40z" class="st1"/><path d="M76,136H20c-6.6,0-12,5.4-12,12v56c0,6.6,5.4,12,12,12h56c6.6,0,12-5.4,12-12v-56C88,141.4,82.6,136,76,136z M32,200c-4.4,0-8-3.6-8-8s3.6-8,8-8s8,3.6,8,8S36.4,200,32,200z M32,168c-4.4,0-8-3.6-8-8s3.6-8,8-8s8,3.6,8,8S36.4,168,32,168z M64,200c-4.4,0-8-3.6-8-8s3.6-8,8-8s8,3.6,8,8S68.4,200,64,200z M64,168c-4.4,0-8-3.6-8-8s3.6-8,8-8s8,3.6,8,8S68.4,168,64,168z" class="st1"/></g><rect width="32" height="32" y="256" class="st2"/><g class="st3"><g class="st4"><line x1="31.9" x2="32" y1="0" y2="352" class="st5"/><line x1="64" x2="64.1" y1="0" y2="352" class="st5"/><line x1="96" x2="96.1" y1="0" y2="352" class="st5"/><line x1="128.1" x2="128.2" y1="0" y2="352" class="st5"/><line x1="159.7" x2="159.8" y1="0" y2="352" class="st5"/><line x1="191.8" x2="191.9" y1="0" y2="352" class="st5"/><line x1="223.8" x2="223.9" y1="0" y2="352" class="st5"/></g><g class="st4"><line x1="0" x2="256" y1="224" y2="223.9" class="st5"/><line x1="0" x2="256" y1="191.9" y2="191.8" class="st5"/><line x1="0" x2="256" y1="159.9" y2="159.8" class="st5"/><line x1="0" x2="256" y1="127.8" y2="127.7" class="st5"/><line x1="0" x2="256" y1="96.2" y2="96.1" class="st5"/><line x1="0" x2="256" y1="64.1" y2="64" class="st5"/><line x1="0" x2="256" y1="32.1" y2="32" class="st5"/><line x1="0" x2="256" y1="320" y2="319.9" class="st5"/><line x1="0" x2="256" y1="288" y2="287.9" class="st5"/><line x1="0" x2="256" y1="255.9" y2="255.8" class="st5"/></g></g></svg>